# This file uses centimeters as units for non-parametric coordinates.

mtllib bookPage.mtl
g default
v 0.046744 -0.002545 0.764366
v 1.143761 -0.002544 0.764366
v 0.046916 0.002544 0.764366
v 1.143933 0.002545 0.764366
v 0.046916 0.002544 -0.764366
v 1.143933 0.002545 -0.764366
v 0.046744 -0.002545 -0.764366
v 1.143761 -0.002544 -0.764366
vt 0.305362 0.973425
vt 0.500000 0.973440
vt 0.007895 0.007812
vt 0.500000 0.974431
vt 0.992187 0.974472
vt 0.494127 0.751312
vt 0.992105 0.751312
vt 0.797549 0.973465
vt 0.992188 0.007866
vt 0.505873 0.007812
vt 0.797549 0.974456
vt 0.007813 0.973405
vt 0.007812 0.974396
vt 0.992188 0.973481
vt 0.505790 0.751258
vt 0.007812 0.751258
vt 0.305362 0.974417
vt 0.494210 0.007867
vn -0.000000 0.000000 1.000000
vn -0.000000 0.000000 1.000000
vn -0.000000 0.000000 1.000000
vn -0.000000 0.000000 1.000000
vn -0.000000 1.000000 0.000000
vn -0.000000 1.000000 0.000000
vn -0.000000 1.000000 0.000000
vn -0.000000 1.000000 0.000000
vn -0.000000 0.000000 -1.000000
vn -0.000000 0.000000 -1.000000
vn -0.000000 0.000000 -1.000000
vn -0.000000 0.000000 -1.000000
vn 0.000000 -1.000000 0.000000
vn 0.000000 -1.000000 0.000000
vn 0.000000 -1.000000 0.000000
vn 0.000000 -1.000000 0.000000
vn 0.999428 -0.033829 0.000000
vn 0.999428 -0.033829 0.000000
vn 0.999428 -0.033829 0.000000
vn 0.999428 -0.033829 0.000000
vn -0.999427 0.033841 0.000000
vn -0.999427 0.033841 0.000000
vn -0.999427 0.033841 0.000000
vn -0.999427 0.033841 0.000000
s off
g Page HintBook1
usemtl bookPage1
f 1/1/1 2/2/2 4/4/3 3/17/4
f 3/3/5 4/18/6 6/6/7 5/16/8
f 5/5/9 6/11/10 8/8/11 7/14/12
f 7/7/13 8/15/14 2/10/15 1/9/16
f 2/2/17 8/8/18 6/11/19 4/4/20
f 7/12/21 1/1/22 3/17/23 5/13/24
