# This file uses centimeters as units for non-parametric coordinates.

mtllib minuteWheel10s.mtl
g default
v -0.482353 -1.004084 -0.549720
v -0.482353 -0.594702 -0.978113
v -0.482353 -0.025970 -1.144422
v -0.482353 0.549720 -1.004084
v -0.482353 0.978113 -0.594702
v -0.482353 1.144422 -0.025971
v -0.482353 1.004084 0.549720
v -0.482353 0.594702 0.978113
v -0.482353 0.025970 1.144422
v -0.482353 -0.549719 1.004084
v -0.482353 -0.978113 0.594702
v -0.482353 -1.144422 0.025971
v 0.482353 -1.004084 -0.549720
v 0.482353 -0.594702 -0.978113
v 0.482353 -0.025970 -1.144422
v 0.482353 0.549720 -1.004084
v 0.482353 0.978113 -0.594702
v 0.482353 1.144422 -0.025971
v 0.482353 1.004084 0.549720
v 0.482353 0.594702 0.978113
v 0.482353 0.025970 1.144422
v 0.482353 -0.549719 1.004084
v 0.482353 -0.978113 0.594702
v 0.482353 -1.144422 0.025971
v -0.482353 0.000000 0.000000
v 0.482353 0.000000 0.000000
v 0.000000 -1.004084 -0.549720
v -0.000000 -1.144422 0.025971
v 0.000000 -0.978113 0.594702
v -0.000000 -0.549719 1.004084
v -0.000000 0.025970 1.144422
v -0.000000 0.594702 0.978113
v 0.000000 1.004084 0.549720
v -0.000000 1.144422 -0.025971
v 0.000000 0.978113 -0.594702
v -0.000000 0.549720 -1.004084
v -0.000000 -0.025970 -1.144422
v -0.000000 -0.594702 -0.978113
v 0.482353 -1.004084 -0.549720
v 0.482353 -1.144422 0.025971
v 0.482353 -0.978113 0.594702
v 0.482353 -0.549719 1.004084
v 0.482353 0.025970 1.144422
v 0.482353 0.594702 0.978113
v 0.482353 1.004084 0.549720
v 0.482353 1.144422 -0.025971
v 0.482353 0.978113 -0.594702
v 0.482353 0.549720 -1.004084
v 0.482353 -0.025970 -1.144422
v 0.482353 -0.594702 -0.978113
v -0.482353 -1.004084 -0.549720
v -0.482353 -1.144422 0.025971
v -0.482353 -0.978113 0.594702
v -0.482353 -0.549719 1.004084
v -0.482353 0.025970 1.144422
v -0.482353 0.594702 0.978113
v -0.482353 1.004084 0.549720
v -0.482353 1.144422 -0.025971
v -0.482353 0.978113 -0.594702
v -0.482353 0.549720 -1.004084
v -0.482353 -0.025970 -1.144422
v -0.482353 -0.594702 -0.978113
vt 0.314759 0.204836
vt 0.314759 0.126723
vt 0.275703 0.059076
vt 0.208055 0.020019
vt 0.129943 0.020019
vt 0.062295 0.059076
vt 0.023238 0.126723
vt 0.023238 0.204836
vt 0.062295 0.272484
vt 0.129943 0.311540
vt 0.208055 0.311540
vt 0.275703 0.272484
vt 0.808937 0.584146
vt 0.808919 0.506487
vt 0.935373 0.992995
vt 0.808919 0.833843
vt 0.809293 0.752976
vt 0.808917 0.670911
vt 0.808920 0.588477
vt 0.808918 0.506446
vt 0.808921 0.915316
vt 0.808918 0.833859
vt 0.808901 0.752377
vt 0.808916 0.670948
vt 0.808920 0.588515
vt 0.935376 0.584115
vt 0.935357 0.506456
vt 0.808933 0.993012
vt 0.935357 0.833859
vt 0.935732 0.752994
vt 0.935356 0.670924
vt 0.935358 0.588500
vt 0.935357 0.506456
vt 0.935360 0.915333
vt 0.935357 0.833859
vt 0.935357 0.752390
vt 0.935357 0.670921
vt 0.935360 0.588500
vt 0.314759 0.126723
vt 0.275703 0.059076
vt 0.208055 0.020019
vt 0.129942 0.020019
vt 0.062295 0.059076
vt 0.023238 0.126724
vt 0.023238 0.204836
vt 0.062295 0.272484
vt 0.129943 0.311540
vt 0.208055 0.311540
vt 0.275703 0.272484
vt 0.314759 0.204836
vt 0.168999 0.165780
vt 0.168999 0.165780
vt 0.872141 0.588508
vt 0.872156 0.584132
vt 0.872136 0.670935
vt 0.872113 0.752383
vt 0.872139 0.833859
vt 0.872141 0.915325
vt 0.872136 0.506451
vt 0.872140 0.588489
vt 0.872138 0.670918
vt 0.872512 0.752985
vt 0.872138 0.833851
vt 0.872152 0.993003
vt 0.872136 0.506471
vt 0.935358 0.588500
vt 0.935373 0.584116
vt 0.935356 0.670924
vt 0.935340 0.752391
vt 0.935356 0.833858
vt 0.935358 0.915333
vt 0.935355 0.506457
vt 0.935357 0.588501
vt 0.935355 0.670923
vt 0.935731 0.752993
vt 0.935356 0.833861
vt 0.808935 0.993011
vt 0.935355 0.506455
vt 0.808921 0.588516
vt 0.808938 0.584147
vt 0.808917 0.670947
vt 0.808903 0.752378
vt 0.808920 0.833859
vt 0.808922 0.915315
vt 0.808920 0.506447
vt 0.808921 0.588475
vt 0.808918 0.670912
vt 0.809294 0.752976
vt 0.808920 0.833841
vt 0.935371 0.992994
vt 0.808920 0.506486
vt 0.935359 0.915335
vt 0.872142 0.915342
vt 0.808910 0.911504
vt 0.872128 0.911511
vt 0.809281 0.830635
vt 0.872500 0.830646
vt 0.808913 0.748573
vt 0.872130 0.748578
vt 0.808907 0.666137
vt 0.872125 0.666148
vt 0.808912 0.584106
vt 0.872131 0.584111
vt 0.808914 0.992978
vt 0.872131 0.992986
vt 0.808921 0.911518
vt 0.872139 0.911519
vt 0.808893 0.830031
vt 0.872105 0.830036
vt 0.808935 0.748610
vt 0.872153 0.748597
vt 0.808931 0.666175
vt 0.872150 0.666169
vt 0.808924 0.915350
vt 0.808922 0.915351
vt 0.935347 0.911519
vt 0.935350 0.911520
vt 0.935718 0.830653
vt 0.935720 0.830656
vt 0.935347 0.748585
vt 0.935349 0.748583
vt 0.935344 0.666161
vt 0.935346 0.666160
vt 0.935349 0.584116
vt 0.935352 0.584117
vt 0.935347 0.992993
vt 0.935350 0.992995
vt 0.935358 0.911518
vt 0.935360 0.911519
vt 0.935325 0.830058
vt 0.935327 0.830028
vt 0.935371 0.748584
vt 0.935373 0.748586
vt 0.935369 0.666160
vt 0.935371 0.666162
vt 0.808930 0.666176
vt 0.808934 0.748609
vt 0.808891 0.830031
vt 0.808919 0.911518
vt 0.808912 0.992977
vt 0.808910 0.584107
vt 0.808906 0.666136
vt 0.808911 0.748573
vt 0.809280 0.830635
vt 0.808908 0.911503
vt 0.935360 0.915333
vn 0.000000 0.000000 0.000000
vn 0.000000 0.000000 0.000000
vn 0.000000 -0.722967 -0.690882
vn 0.000000 -0.722967 -0.690882
vn 0.000000 0.000000 0.000000
vn 0.000000 0.000000 0.000000
vn 0.000000 -0.280666 -0.959806
vn 0.000000 -0.280666 -0.959806
vn 0.000000 0.000000 0.000000
vn 0.000000 0.000000 0.000000
vn 0.000000 0.236838 -0.971549
vn 0.000000 0.236838 -0.971549
vn 0.000000 0.000000 0.000000
vn 0.000000 0.000000 0.000000
vn 0.000000 0.690882 -0.722967
vn 0.000000 0.690882 -0.722967
vn 0.000000 0.000000 0.000000
vn 0.000000 0.000000 0.000000
vn 0.000000 0.959805 -0.280667
vn 0.000000 0.959805 -0.280667
vn 0.000000 0.000000 0.000000
vn 0.000000 0.000000 0.000000
vn 0.000000 0.971549 0.236838
vn 0.000000 0.971549 0.236838
vn 0.000000 0.000000 0.000000
vn 0.000000 0.000000 0.000000
vn 0.000000 0.722967 0.690883
vn 0.000000 0.722967 0.690883
vn 0.000000 0.000000 0.000000
vn 0.000000 0.000000 0.000000
vn 0.000000 0.280666 0.959805
vn 0.000000 0.280666 0.959805
vn 0.000000 0.000000 0.000000
vn 0.000000 0.000000 0.000000
vn 0.000000 -0.236838 0.971549
vn 0.000000 -0.236838 0.971549
vn 0.000000 0.000000 0.000000
vn 0.000000 0.000000 0.000000
vn 0.000000 -0.690882 0.722968
vn 0.000000 -0.690882 0.722968
vn 0.000000 0.000000 0.000000
vn 0.000000 0.000000 0.000000
vn 0.000000 -0.959805 0.280667
vn 0.000000 -0.959805 0.280667
vn 0.000000 0.000000 0.000000
vn 0.000000 0.000000 0.000000
vn 0.000000 -0.971549 -0.236839
vn 0.000000 -0.971549 -0.236839
vn -1.000000 0.000000 0.000000
vn -1.000000 0.000000 0.000000
vn -1.000000 0.000000 0.000000
vn -1.000000 0.000000 0.000000
vn -1.000000 -0.000000 0.000000
vn -1.000000 0.000000 0.000000
vn -1.000000 0.000000 0.000000
vn -1.000000 0.000000 0.000000
vn -1.000000 0.000000 0.000000
vn -1.000000 0.000000 0.000000
vn -1.000000 0.000000 0.000000
vn -1.000000 0.000000 0.000000
vn -1.000000 -0.000000 0.000000
vn 1.000000 0.000000 0.000000
vn 1.000000 -0.000000 -0.000000
vn 1.000000 -0.000000 0.000000
vn 1.000000 -0.000000 0.000000
vn 1.000000 0.000000 -0.000000
vn 1.000000 0.000000 0.000000
vn 1.000000 -0.000000 -0.000000
vn 1.000000 -0.000000 -0.000000
vn 1.000000 -0.000000 0.000000
vn 1.000000 0.000000 0.000000
vn 1.000000 0.000000 0.000000
vn 1.000000 0.000000 -0.000000
vn 1.000000 0.000000 -0.000000
vn 0.000000 -0.971549 -0.236839
vn 0.000000 -0.971549 -0.236839
vn 0.000000 -0.971549 -0.236839
vn 0.000000 -0.971549 -0.236839
vn 0.000000 -0.959805 0.280667
vn 0.000000 -0.959805 0.280667
vn 0.000000 -0.959805 0.280667
vn 0.000000 -0.959805 0.280667
vn 0.000000 -0.690882 0.722968
vn 0.000000 -0.690882 0.722968
vn 0.000000 -0.690882 0.722968
vn 0.000000 -0.690882 0.722968
vn 0.000000 -0.236838 0.971549
vn 0.000000 -0.236838 0.971549
vn 0.000000 -0.236838 0.971549
vn 0.000000 -0.236838 0.971549
vn 0.000000 0.280666 0.959805
vn 0.000000 0.280666 0.959805
vn 0.000000 0.280666 0.959805
vn 0.000000 0.280666 0.959805
vn 0.000000 0.722967 0.690883
vn 0.000000 0.722967 0.690883
vn 0.000000 0.722967 0.690883
vn 0.000000 0.722967 0.690883
vn 0.000000 0.971549 0.236838
vn 0.000000 0.971549 0.236838
vn 0.000000 0.971549 0.236838
vn 0.000000 0.971549 0.236838
vn 0.000000 0.959805 -0.280667
vn 0.000000 0.959805 -0.280667
vn 0.000000 0.959805 -0.280667
vn 0.000000 0.959805 -0.280667
vn 0.000000 0.690882 -0.722967
vn 0.000000 0.690882 -0.722967
vn 0.000000 0.690882 -0.722967
vn 0.000000 0.690882 -0.722967
vn 0.000000 0.236838 -0.971549
vn 0.000000 0.236838 -0.971549
vn 0.000000 0.236838 -0.971549
vn 0.000000 0.236838 -0.971549
vn 0.000000 -0.280666 -0.959806
vn 0.000000 -0.280666 -0.959806
vn 0.000000 -0.280666 -0.959806
vn 0.000000 -0.280666 -0.959806
vn 0.000000 -0.722967 -0.690882
vn 0.000000 -0.722967 -0.690882
vn 0.000000 -0.722967 -0.690882
vn 0.000000 -0.722967 -0.690882
vn 0.913541 0.391613 0.109917
vn 0.913541 0.391613 0.109917
vn 0.742889 0.660345 -0.109821
vn 0.742889 0.660345 -0.109821
vn 0.000000 0.759390 -0.650636
vn 0.000000 0.759390 -0.650636
vn 0.000000 0.212187 -0.977229
vn 0.000000 0.212187 -0.977229
vn 0.000000 -0.402412 -0.915459
vn 0.000000 -0.402412 -0.915459
vn 0.000000 -0.773737 -0.633507
vn 0.000000 -0.773737 -0.633507
vn 0.000000 -0.962795 -0.270233
vn 0.000000 -0.962795 -0.270233
vn 0.000000 -0.986451 0.164056
vn 0.000000 -0.986451 0.164056
vn 0.000000 -0.759390 0.650635
vn 0.000000 -0.759390 0.650635
vn 0.000000 -0.212187 0.977229
vn 0.000000 -0.212187 0.977229
vn 0.000000 0.214664 0.976688
vn 0.000000 0.214664 0.976688
vn 0.000000 0.521180 0.853447
vn 0.000000 0.521180 0.853447
s 1
g MinuteWheel10s
usemtl timeWheels_SG
f 1/13/1 2/14/2 62/91/3 51/80/4
s 2
f 2/146/5 3/15/6 61/90/7 62/92/8
s 3
f 3/145/9 4/16/10 60/89/11 61/94/12
s 4
f 4/144/13 5/17/14 59/88/15 60/96/16
s 5
f 5/143/17 6/18/18 58/87/19 59/98/20
s 6
f 6/142/21 7/19/22 57/86/23 58/100/24
s 7
f 7/141/25 8/20/26 56/85/27 57/102/28
s 8
f 8/140/29 9/21/30 55/84/31 56/104/32
s 9
f 9/139/33 10/22/34 54/83/35 55/106/36
s 10
f 10/138/37 11/23/38 53/82/39 54/108/40
s 11
f 11/137/41 12/24/42 52/81/43 53/110/44
s 12
f 12/136/45 1/25/46 51/79/47 52/112/48
s 13
f 2/2/49 1/1/50 25/51/51
f 3/3/52 2/2/49 25/51/51
f 4/4/53 3/3/52 25/51/51
f 5/5/54 4/4/53 25/51/51
f 6/6/55 5/5/54 25/51/51
f 7/7/56 6/6/55 25/51/51
f 8/8/57 7/7/56 25/51/51
f 9/9/58 8/8/57 25/51/51
f 10/10/59 9/9/58 25/51/51
f 11/11/60 10/10/59 25/51/51
f 12/12/61 11/11/60 25/51/51
f 1/1/50 12/12/61 25/51/51
s 14
f 13/49/62 14/48/63 26/52/64
f 14/48/63 15/47/65 26/52/64
f 15/47/65 16/46/66 26/52/64
f 16/46/66 17/45/67 26/52/64
f 17/45/67 18/44/68 26/52/64
f 18/44/68 19/43/69 26/52/64
f 19/43/69 20/42/70 26/52/64
f 20/42/70 21/41/71 26/52/64
f 21/41/71 22/40/72 26/52/64
f 22/40/72 23/39/73 26/52/64
f 23/39/73 24/50/74 26/52/64
f 24/50/74 13/49/62 26/52/64
s 12
f 28/113/75 27/53/76 39/66/77 40/134/78
s 11
f 29/111/79 28/55/80 40/68/81 41/132/82
s 10
f 30/109/83 29/56/84 41/69/85 42/130/86
s 9
f 31/107/87 30/57/88 42/70/89 43/128/90
s 8
f 32/105/91 31/58/92 43/71/93 44/126/94
s 7
f 33/103/95 32/59/96 44/72/97 45/124/98
s 6
f 34/101/99 33/60/100 45/73/101 46/122/102
s 5
f 35/99/103 34/61/104 46/74/105 47/120/106
s 4
f 36/97/107 35/62/108 47/75/109 48/118/110
s 3
f 37/95/111 36/63/112 48/76/113 49/116/114
s 2
f 38/93/115 37/64/116 49/77/117 50/114/118
s 1
f 27/54/119 38/65/120 50/78/121 39/67/122
s 12
f 40/134/78 39/66/77 13/38/123 24/135/124
s 11
f 41/132/82 40/68/81 24/37/125 23/133/126
s 10
f 42/130/86 41/69/85 23/36/127 22/131/128
s 9
f 43/128/90 42/70/89 22/35/129 21/129/130
s 8
f 44/126/94 43/71/93 21/34/131 20/127/132
s 7
f 45/124/98 44/72/97 20/33/133 19/125/134
s 6
f 46/122/102 45/73/101 19/32/135 18/123/136
s 5
f 47/120/106 46/74/105 18/31/137 17/121/138
s 4
f 48/118/110 47/75/109 17/30/139 16/119/140
s 3
f 49/116/114 48/76/113 16/29/141 15/117/142
s 2
f 50/114/118 49/77/117 15/28/143 14/115/144
s 1
f 39/67/122 50/78/121 14/27/145 13/26/146
s 12
f 52/112/48 51/79/47 27/53/76 28/113/75
s 11
f 53/110/44 52/81/43 28/55/80 29/111/79
s 10
f 54/108/40 53/82/39 29/56/84 30/109/83
s 9
f 55/106/36 54/83/35 30/57/88 31/107/87
s 8
f 56/104/32 55/84/31 31/58/92 32/105/91
s 7
f 57/102/28 56/85/27 32/59/96 33/103/95
s 6
f 58/100/24 57/86/23 33/60/100 34/101/99
s 5
f 59/98/20 58/87/19 34/61/104 35/99/103
s 4
f 60/96/16 59/88/15 35/62/108 36/97/107
s 3
f 61/94/12 60/89/11 36/63/112 37/95/111
s 2
f 62/92/8 61/90/7 37/64/116 38/93/115
s 1
f 51/80/4 62/91/3 38/65/120 27/54/119
