# This file uses centimeters as units for non-parametric coordinates.

mtllib minuteWheel.mtl
g default
v -0.482353 -0.908340 -0.324929
v -0.482353 -0.543874 -0.796781
v -0.482353 0.028335 -0.964290
v -0.482353 0.589718 -0.763474
v -0.482353 0.925849 -0.271036
v -0.482353 0.908340 0.324929
v -0.482353 0.543875 0.796781
v -0.482353 -0.028334 0.964290
v -0.482353 -0.589717 0.763473
v -0.482353 -0.925849 0.271036
v 0.482353 -0.908340 -0.324929
v 0.482353 -0.543873 -0.796781
v 0.482353 0.028334 -0.964290
v 0.482353 0.589717 -0.763474
v 0.482353 0.925849 -0.271036
v 0.482353 0.908340 0.324929
v 0.482353 0.543874 0.796781
v 0.482353 -0.028333 0.964290
v 0.482353 -0.589717 0.763473
v 0.482353 -0.925850 0.271036
v -0.482353 0.000000 0.000000
v 0.482353 0.000000 0.000000
v -0.000000 -0.908340 -0.324929
v -0.000000 -0.925850 0.271036
v -0.000000 -0.589718 0.763473
v -0.000000 -0.028334 0.964290
v -0.000000 0.543875 0.796781
v -0.000000 0.908340 0.324929
v -0.000000 0.925849 -0.271036
v -0.000000 0.589718 -0.763474
v -0.000000 0.028335 -0.964290
v -0.000000 -0.543873 -0.796781
vt 0.246995 0.372132
vt 0.183408 0.325933
vt 0.104812 0.325933
vt 0.041225 0.372132
vt 0.016937 0.446882
vt 0.041225 0.521632
vt 0.104812 0.567830
vt 0.183408 0.567830
vt 0.246995 0.521632
vt 0.271282 0.446882
vt 0.808539 0.667081
vt 0.808549 0.588484
vt 0.808546 0.506449
vt 0.808546 0.422561
vt 0.808539 0.338514
vt 0.808539 0.255904
vt 0.808539 0.173294
vt 0.808549 0.915317
vt 0.808546 0.833853
vt 0.808546 0.752384
vt 0.808546 0.670915
vt 0.935712 0.667097
vt 0.935715 0.585053
vt 0.935715 0.501165
vt 0.935722 0.417093
vt 0.935722 0.334483
vt 0.935722 0.251874
vt 0.935712 0.993931
vt 0.935715 0.912456
vt 0.935715 0.830987
vt 0.935715 0.749518
vt 0.935719 0.670921
vt 0.183409 0.325934
vt 0.104812 0.325933
vt 0.041225 0.372132
vt 0.016937 0.446882
vt 0.041225 0.521632
vt 0.104811 0.567830
vt 0.183408 0.567830
vt 0.246995 0.521632
vt 0.271282 0.446882
vt 0.246995 0.372132
vt 0.144110 0.446882
vt 0.144110 0.446882
vt 0.808542 0.749511
vt 0.935719 0.752390
vt 0.808542 0.830981
vt 0.935719 0.833859
vt 0.808542 0.912450
vt 0.935722 0.915333
vt 0.808539 0.993914
vt 0.935711 0.173277
vt 0.808550 0.251891
vt 0.935711 0.255886
vt 0.808550 0.334501
vt 0.935711 0.338496
vt 0.808550 0.417111
vt 0.935719 0.422568
vt 0.808542 0.501158
vt 0.935719 0.506456
vt 0.808542 0.585046
vt 0.935722 0.588500
vt 0.872132 0.670918
vt 0.872126 0.667089
vt 0.872132 0.752387
vt 0.872128 0.749515
vt 0.872132 0.833856
vt 0.872128 0.830984
vt 0.872136 0.915325
vt 0.872128 0.912453
vt 0.872125 0.173286
vt 0.872126 0.993923
vt 0.872125 0.255895
vt 0.872136 0.251882
vt 0.872125 0.338505
vt 0.872136 0.334492
vt 0.872132 0.422564
vt 0.872136 0.417102
vt 0.872132 0.506452
vt 0.872128 0.501161
vt 0.872136 0.588492
vt 0.872128 0.585050
vn 0.000000 -0.791404 -0.611293
vn 0.000000 -0.791404 -0.611293
vn 0.000000 -0.791404 -0.611293
vn 0.000000 -0.791404 -0.611293
vn 0.000000 -0.280950 -0.959722
vn 0.000000 -0.280950 -0.959722
vn -0.000000 -0.280951 -0.959722
vn -0.000000 -0.280951 -0.959722
vn 0.000000 0.336817 -0.941570
vn 0.000000 0.336817 -0.941570
vn 0.000000 0.336817 -0.941570
vn 0.000000 0.336817 -0.941570
vn 0.000000 0.825932 -0.563770
vn 0.000000 0.825932 -0.563770
vn 0.000000 0.825932 -0.563770
vn 0.000000 0.825932 -0.563770
vn 0.000000 0.999569 0.029367
vn 0.000000 0.999569 0.029367
vn 0.000000 0.999569 0.029367
vn 0.000000 0.999569 0.029367
vn 0.000000 0.791405 0.611292
vn 0.000000 0.791405 0.611292
vn 0.000000 0.791405 0.611292
vn 0.000000 0.791405 0.611292
vn 0.000000 0.280950 0.959722
vn 0.000000 0.280950 0.959722
vn -0.000000 0.280950 0.959722
vn -0.000000 0.280950 0.959722
vn -0.000000 -0.336817 0.941570
vn -0.000000 -0.336817 0.941570
vn 0.000000 -0.336816 0.941570
vn 0.000000 -0.336816 0.941570
vn -0.000001 -0.825932 0.563770
vn -0.000001 -0.825932 0.563770
vn -0.000000 -0.825931 0.563770
vn -0.000000 -0.825931 0.563771
vn -0.000001 -0.999569 -0.029368
vn -0.000001 -0.999569 -0.029368
vn -0.000000 -0.999569 -0.029368
vn -0.000000 -0.999569 -0.029368
vn -1.000000 0.000000 0.000000
vn -1.000000 -0.000000 0.000000
vn -1.000000 -0.000000 0.000000
vn -1.000000 0.000000 -0.000000
vn -1.000000 0.000000 0.000000
vn -1.000000 -0.000000 0.000000
vn -1.000000 -0.000000 0.000000
vn -1.000000 -0.000000 0.000000
vn -1.000000 0.000000 0.000000
vn -1.000000 -0.000000 -0.000000
vn -1.000000 -0.000000 0.000000
vn 1.000000 0.000000 0.000000
vn 1.000000 0.000000 0.000000
vn 1.000000 -0.000000 -0.000000
vn 1.000000 0.000000 0.000000
vn 1.000000 0.000000 -0.000000
vn 1.000000 -0.000000 -0.000000
vn 1.000000 -0.000000 -0.000000
vn 1.000000 -0.000000 -0.000000
vn 1.000000 -0.000000 -0.000000
vn 1.000000 -0.000000 -0.000000
vn 1.000000 -0.000000 0.000000
vn 0.000000 -0.999569 -0.029368
vn 0.000000 -0.999569 -0.029368
vn 0.000000 -0.825931 0.563771
vn 0.000000 -0.825931 0.563771
vn 0.000000 -0.336816 0.941570
vn 0.000000 -0.336816 0.941570
vn -0.000000 0.280951 0.959722
vn -0.000000 0.280951 0.959722
vn 0.000000 0.791405 0.611292
vn 0.000000 0.791405 0.611292
vn 0.000000 0.999569 0.029367
vn 0.000000 0.999569 0.029367
vn 0.000000 0.825932 -0.563770
vn 0.000000 0.825932 -0.563770
vn 0.000001 0.336817 -0.941570
vn 0.000001 0.336817 -0.941570
vn -0.000000 -0.280951 -0.959722
vn -0.000000 -0.280951 -0.959722
vn 0.000000 -0.791404 -0.611293
vn 0.000000 -0.791404 -0.611293
s 1
g MinuteWheel
usemtl timeWheels_SG
f 23/64/1 1/11/2 2/12/3 32/81/4
s 2
f 2/61/5 3/13/6 31/79/7 32/82/8
s 3
f 3/59/9 4/14/10 30/77/11 31/80/12
s 4
f 4/57/13 5/15/14 29/75/15 30/78/16
s 5
f 5/55/17 6/16/18 28/73/19 29/76/20
s 6
f 6/53/21 7/17/22 27/71/23 28/74/24
s 7
f 7/51/25 8/18/26 26/69/27 27/72/28
s 8
f 8/49/29 9/19/30 25/67/31 26/70/32
s 9
f 9/47/33 10/20/34 24/65/35 25/68/36
s 10
f 10/45/37 1/21/38 23/63/39 24/66/40
s 11
f 2/2/41 1/1/42 21/43/43
f 3/3/44 2/2/41 21/43/43
f 4/4/45 3/3/44 21/43/43
f 5/5/46 4/4/45 21/43/43
f 6/6/47 5/5/46 21/43/43
f 7/7/48 6/6/47 21/43/43
f 8/8/49 7/7/48 21/43/43
f 9/9/50 8/8/49 21/43/43
f 10/10/51 9/9/50 21/43/43
f 1/1/42 10/10/51 21/43/43
s 12
f 11/41/52 12/40/53 22/44/54
f 12/40/53 13/39/55 22/44/54
f 13/39/55 14/38/56 22/44/54
f 14/38/56 15/37/57 22/44/54
f 15/37/57 16/36/58 22/44/54
f 16/36/58 17/35/59 22/44/54
f 17/35/59 18/34/60 22/44/54
f 18/34/60 19/33/61 22/44/54
f 19/33/61 20/42/62 22/44/54
f 20/42/62 11/41/52 22/44/54
s 10
f 24/66/40 23/63/39 11/32/63 20/31/64
s 9
f 25/68/36 24/65/35 20/46/65 19/30/66
s 8
f 26/70/32 25/67/31 19/48/67 18/29/68
s 7
f 27/72/28 26/69/27 18/50/69 17/28/70
s 6
f 28/74/24 27/71/23 17/52/71 16/27/72
s 5
f 29/76/20 28/73/19 16/54/73 15/26/74
s 4
f 30/78/16 29/75/15 15/56/75 14/25/76
s 3
f 31/80/12 30/77/11 14/58/77 13/24/78
s 2
f 32/82/8 31/79/7 13/60/79 12/23/80
s 1
f 11/22/81 23/64/1 32/81/4 12/62/82
